<svg version="1.1" id="Layer_1" xmlns="http://www.w3.org/2000/svg" xmlns:xlink="http://www.w3.org/1999/xlink" x="0px" y="0px"
	 width="640px" height="480px" viewBox="0 0 640 480" style="enable-background:new 0 0 640 480;" xml:space="preserve">
<style type="text/css">
	.st0{fill:#C1272D;stroke:#000000;stroke-width:3;stroke-miterlimit:10;}
	.st1{stroke:#000000;stroke-width:3;stroke-miterlimit:10;}
	.st2{fill:none;}
	.st3{font-family:'Roboto';}
	.st4{font-size:52px;}
	.st5{font-family:'Constantia';}
	.st6{font-size:85px;}
</style>
<g id="Layer_1_1_">
	<ellipse class="st0" cx="323.83" cy="240" rx="274.59" ry="240"/>
	<polygon class="st1" points="323.83,356.43 305.09,366.45 169.53,284.69 169.53,279.15 181.13,279.15 	"/>
	<polygon class="st1" points="172.96,428.69 180.6,435.55 255.77,436.6 280.82,411.29 280.82,394.14 305.09,377.79 320,377.79 
		327.24,382.27 485.48,289.7 488.12,279.15 478.63,279.15 339.11,356.43 330.54,356.69 308.52,369.88 283.2,384.12 265.26,378.05 
		237.57,377.53 210.41,395.46 205.13,405.48 204.87,427.11 200.38,431.33 182.71,432.12 	"/>
	<polygon class="st0" points="330.54,363.29 327.77,363.29 325.66,365.4 323.83,368.03 323.83,370.67 325.92,373.04 327.18,374.63 
		330.54,374.63 333.57,373.31 335.95,370.67 335.95,366.45 333.57,364.6 	"/>
	<polygon class="st1" points="346.23,376.74 371.81,389.92 372.87,404.43 381.57,419.73 400.82,436.6 435.37,436.6 452.25,419.73 
		452.25,405.22 446.71,395.73 424.3,379.9 417.44,376.74 392.38,376.74 378.14,383.59 355.2,371.46 	"/>
	<polygon class="st0" points="237.31,385.97 212.78,404.03 212.78,422.36 221.48,430.8 247.86,430.8 253.66,428.69 274.23,408.38 
		275.81,392.82 263.95,383.33 241.53,383.33 	"/>
	<polygon class="st0" points="381.31,390.98 381.31,406.01 394.49,423.68 406.1,430.8 410.85,432.12 433.26,432.12 443.29,420.25 
		443.29,405.48 439.07,398.36 415.07,383.33 389.75,383.33 	"/>
	<path class="st1" d="M326.46,59.73c-6.48-3.01-18.4-7.16-30.59-3.16c-10.79,3.53-19.74,12.76-23.47,16.62
		c-5.5,5.68-5.31,7.18-8.97,9.23c-8.28,4.65-22.78,4.56-30.33-5.01c-4.25-5.39-5.92-13.29-3.82-19.55c1.65-4.92,5.21-7.59,4.35-8.67
		c-0.97-1.22-6.73,0.65-10.55,4.48c-3.81,3.83-5.14,9.04-5.54,16.35c-0.75,13.6-1.42,25.88,6.86,37.45
		c8.9,12.45,22.25,15.82,32.7,18.46c18.65,4.71,33.9,0.87,38.77-0.53c18.3-5.26,29.52-16.19,34.02-21.1V59.99L326.46,59.73z"/>
	<path class="st1" d="M333.31,59.73c6.48-3.01,18.4-7.16,30.59-3.16c10.79,3.53,19.74,12.76,23.47,16.62
		c5.5,5.68,5.31,7.18,8.97,9.23c8.28,4.65,22.78,4.56,30.33-5.01c4.25-5.39,5.92-13.29,3.82-19.55c-1.65-4.92-5.21-7.59-4.35-8.67
		c0.97-1.22,6.73,0.65,10.55,4.48c3.81,3.83,5.14,9.04,5.54,16.35c0.75,13.6,1.42,25.88-6.86,37.45
		c-8.9,12.45-22.25,15.82-32.7,18.46c-18.65,4.71-33.9,0.87-38.77-0.53c-18.3-5.26-29.52-16.19-34.02-21.1V59.99L333.31,59.73z"/>
	<rect x="233.25" y="219.27" class="st2" width="199.48" height="52.94"/>
	<text transform="matrix(1.5004 0 0 1 212.78 260.4196)" class="st3 st4">Saloon</text>
</g>
<rect x="186.198" y="143.648" class="st2" width="293.391" height="64.879"/>
<text transform="matrix(1 0 0 1 186.1978 206.208)" class="st5 st6">MOSTA</text>
</svg>
